<?xml version="1.0" standalone="no"?>
<!DOCTYPE svg PUBLIC "-//W3C//DTD SVG 20010904//EN"
 "http://www.w3.org/TR/2001/REC-SVG-20010904/DTD/svg10.dtd">
<svg version="1.0" xmlns="http://www.w3.org/2000/svg"
 width="732.000000pt" height="732.000000pt" viewBox="0 0 732.000000 732.000000"
 preserveAspectRatio="xMidYMid meet">

<g transform="translate(0.000000,732.000000) scale(0.100000,-0.100000)"
fill="#000000" stroke="none">
<path d="M3601 6392 c-54 -29 -73 -74 -66 -154 6 -64 4 -72 -27 -130 -67 -125
-183 -207 -306 -215 -57 -4 -84 1 -182 32 -69 22 -139 37 -175 39 -35 1 -70 9
-85 18 -79 52 -170 12 -170 -74 0 -79 45 -109 162 -107 114 2 217 -61 261
-161 18 -40 19 -58 13 -190 -8 -177 1 -228 56 -340 52 -107 153 -209 323 -330
160 -113 207 -157 239 -230 15 -33 30 -60 35 -60 4 0 12 15 19 33 20 55 104
139 241 241 185 137 272 229 333 350 54 106 59 140 56 329 -3 192 3 216 73
285 61 59 111 76 227 77 101 0 105 1 128 28 50 58 23 153 -50 177 -37 12 -89
-2 -113 -32 -10 -11 -30 -14 -90 -11 -69 4 -92 0 -191 -31 -134 -42 -204 -46
-287 -15 -70 26 -149 98 -198 180 -37 62 -38 66 -32 134 7 84 -11 128 -65 157
-44 23 -86 23 -129 0z m187 -654 c8 -8 12 -49 12 -120 l0 -107 118 -3 117 -3
3 -131 3 -131 -77 -7 c-42 -3 -96 -6 -120 -6 l-43 0 -3 -112 -3 -113 -124 -8
c-88 -6 -127 -5 -135 3 -7 7 -10 50 -8 120 l2 109 -117 3 -118 3 -3 138 -3
137 33 2 c18 1 71 2 118 3 l85 0 2 103 c1 57 4 110 7 118 7 19 235 21 254 2z"/>
<path d="M5235 5856 c-13 -13 -26 -41 -30 -62 -9 -58 -16 -66 -80 -99 -52 -26
-72 -30 -160 -33 -85 -3 -112 0 -185 22 -149 46 -183 51 -231 37 -55 -17 -94
-57 -110 -112 -9 -36 -9 -66 5 -169 22 -161 13 -230 -46 -350 -62 -129 -190
-252 -419 -403 -96 -64 -191 -131 -210 -149 l-34 -33 60 -2 c142 -6 363 -26
528 -49 210 -28 236 -29 307 -8 71 21 132 84 239 244 155 235 295 549 361 811
54 214 48 199 76 199 37 0 84 51 84 90 0 75 -102 119 -155 66z"/>
<path d="M4798 4486 c-29 -33 -69 -65 -100 -80 -81 -39 -147 -42 -358 -12
-301 41 -412 49 -675 49 -258 0 -427 -13 -695 -55 -231 -35 -334 -14 -440 91
-62 61 -80 65 -80 16 0 -77 101 -214 194 -263 47 -25 60 -27 166 -26 78 0 150
7 223 22 206 42 366 56 637 56 271 0 448 -16 650 -56 62 -13 144 -22 200 -22
85 0 101 3 149 28 102 53 199 178 204 263 3 55 -20 52 -75 -11z"/>
<path d="M2185 3924 c-38 -8 -112 -35 -164 -60 -289 -140 -424 -473 -344 -849
19 -92 89 -235 150 -307 121 -145 288 -225 494 -235 238 -12 390 55 499 221
49 76 58 129 24 134 -16 2 -29 -10 -55 -50 -96 -149 -200 -208 -372 -208 -231
0 -421 166 -499 435 -20 69 -23 102 -23 245 0 145 3 174 23 240 34 106 66 165
125 228 82 86 161 124 293 143 215 30 402 -82 459 -276 10 -33 17 -41 40 -43
l27 -4 -6 89 c-4 48 -12 117 -18 152 l-10 63 -64 30 c-136 63 -407 88 -579 52z"/>
<path d="M3584 3925 c-242 -53 -436 -227 -509 -457 -63 -200 -52 -426 31 -615
71 -164 213 -292 388 -350 75 -25 93 -27 251 -27 161 -1 174 1 250 27 118 42
181 81 271 171 66 66 89 98 128 176 68 139 88 227 88 385 1 101 -4 147 -20
206 -69 257 -247 429 -497 480 -107 22 -289 24 -381 4z m275 -70 c173 -41 296
-171 363 -385 20 -67 23 -95 23 -250 0 -202 -15 -290 -71 -408 -46 -96 -130
-182 -219 -223 -125 -59 -305 -49 -417 22 -106 68 -196 202 -233 347 -37 146
-37 395 0 537 71 274 297 420 554 360z"/>
<path d="M5054 3926 c-82 -19 -156 -58 -216 -114 -61 -57 -83 -99 -98 -184
-28 -159 49 -309 205 -398 31 -17 116 -58 189 -89 278 -120 338 -179 338 -335
0 -107 -43 -179 -137 -230 -35 -18 -56 -21 -165 -21 -120 0 -128 1 -192 32
-38 18 -83 44 -103 58 -43 33 -98 116 -126 189 -19 50 -25 56 -51 56 -28 0
-28 -1 -22 -42 14 -110 37 -207 57 -248 42 -85 179 -130 402 -130 145 0 226
15 307 56 76 39 151 114 184 187 27 57 29 71 29 177 0 108 -2 119 -30 174 -57
114 -159 183 -449 307 -186 80 -247 140 -254 253 -10 150 90 238 273 239 67 1
90 -4 143 -28 80 -36 140 -101 177 -192 32 -78 48 -98 67 -90 12 4 12 24 2
128 -7 68 -16 134 -20 147 -8 27 -78 65 -161 87 -83 22 -274 28 -349 11z"/>
<path d="M1944 2270 c-95 -20 -193 -92 -237 -175 -18 -33 -22 -57 -22 -140 0
-89 3 -106 28 -157 30 -61 80 -109 157 -149 38 -20 59 -24 140 -24 54 0 111 6
133 13 53 19 97 59 97 88 0 31 -6 30 -58 -6 -51 -34 -138 -54 -197 -46 -90 14
-179 101 -206 201 -29 105 15 250 91 301 51 36 132 57 183 49 52 -9 119 -46
141 -80 22 -33 36 -32 36 4 0 75 -8 88 -69 104 -74 21 -166 28 -217 17z"/>
<path d="M3217 2273 l-27 -4 2 -317 3 -317 43 -3 42 -3 0 325 c0 361 6 329
-63 319z"/>
<path d="M4198 2272 l-28 -3 -1 -242 0 -242 -135 140 c-73 77 -176 186 -227
242 -85 94 -95 102 -130 103 l-38 0 3 -317 3 -318 33 -3 32 -3 0 250 c0 138 2
251 5 251 6 0 154 -153 345 -357 73 -79 141 -143 150 -143 16 0 18 26 22 318
3 174 3 319 -1 322 -3 3 -18 4 -33 2z"/>
<path d="M5333 2270 c-97 -20 -179 -84 -225 -177 -29 -59 -33 -77 -33 -148 0
-95 21 -150 85 -219 84 -91 217 -126 349 -92 75 19 117 46 123 81 3 14 2 25
-2 25 -4 0 -36 -15 -70 -32 -54 -28 -73 -33 -134 -33 -79 1 -130 21 -178 72
-66 69 -94 203 -64 306 51 176 259 233 396 110 l50 -45 0 51 c0 61 -14 73
-110 95 -71 17 -122 18 -187 6z"/>
<path d="M2550 1950 l0 -320 175 0 175 0 0 33 0 32 -136 -3 -137 -4 8 291 7
291 -46 0 -46 0 0 -320z"/>
<path d="M4650 1949 l0 -320 43 3 42 3 3 318 2 317 -45 0 -45 0 0 -321z"/>
<path d="M1197 1089 c7 -7 15 -10 18 -7 3 3 -2 9 -12 12 -14 6 -15 5 -6 -5z"/>
<path d="M1241 1054 c1 -11 78 -79 82 -73 2 2 -16 21 -40 43 -24 21 -43 35
-42 30z"/>
<path d="M1580 790 c0 -5 9 -14 20 -20 16 -8 18 -8 14 4 -6 17 -34 30 -34 16z"/>
</g>
</svg>
